<?xml version="1.0" standalone="no"?>
<!DOCTYPE svg PUBLIC "-//W3C//DTD SVG 20010904//EN"
 "http://www.w3.org/TR/2001/REC-SVG-20010904/DTD/svg10.dtd">
<svg version="1.0" xmlns="http://www.w3.org/2000/svg"
 width="360.000000pt" height="360.000000pt" viewBox="0 0 360.000000 360.000000"
 preserveAspectRatio="xMidYMid meet">

<g transform="translate(0.000000,360.000000) scale(0.100000,-0.100000)"
fill="#000000" stroke="none">
<path d="M1925 3216 c-63 -20 -142 -64 -185 -102 l-38 -35 -64 22 c-152 51
-327 -10 -388 -136 l-22 -45 -62 0 c-140 0 -242 -63 -272 -168 -10 -32 -14
-72 -11 -95 5 -39 3 -43 -52 -96 -130 -126 -145 -319 -35 -430 l45 -44 -17
-50 c-22 -65 -15 -176 14 -233 23 -45 90 -110 128 -124 30 -12 30 -26 9 -360
-8 -129 -18 -330 -22 -447 -7 -245 -1 -278 69 -337 66 -57 190 -79 518 -92
180 -7 641 11 705 28 59 15 119 80 142 153 15 51 18 90 16 250 -2 140 1 191
10 197 7 4 37 8 67 8 139 1 290 58 359 137 43 48 77 137 102 263 16 83 16 312
0 415 -19 125 -60 288 -80 321 -26 42 -83 66 -167 72 l-71 4 4 62 c3 33 1 72
-5 86 -7 20 -3 36 21 82 49 94 48 173 -5 258 -12 20 -22 55 -24 81 -6 110 -97
189 -238 205 -48 6 -59 11 -71 33 -20 40 -75 88 -125 110 -53 24 -189 28 -255
7z m233 -80 c59 -30 116 -91 147 -159 l24 -50 3 44 c3 40 5 44 28 41 100 -13
161 -56 179 -126 16 -65 15 -69 -16 -63 -16 3 -46 2 -68 -2 l-40 -7 50 -23
c65 -29 123 -86 136 -133 14 -55 -14 -116 -74 -157 -25 -17 -50 -31 -56 -31
-18 0 -13 -15 14 -40 64 -60 42 -164 -35 -170 -82 -7 -97 5 -58 47 25 27 20
28 -46 8 -70 -21 -117 -19 -157 8 -38 25 -76 92 -86 149 l-6 38 -39 -45 c-22
-25 -58 -55 -79 -65 -50 -26 -124 -26 -167 0 -41 25 -42 25 -42 -2 -1 -60 -66
-145 -129 -170 -44 -17 -135 -12 -184 10 -26 11 -69 41 -96 67 l-49 46 -59
-33 c-96 -54 -176 -44 -275 34 -28 22 -38 26 -38 14 0 -30 22 -72 57 -108 l36
-37 -15 -241 c-8 -132 -18 -243 -22 -247 -4 -5 -29 15 -56 43 -74 78 -85 147
-43 280 l16 53 -45 49 c-63 67 -82 106 -82 172 -1 69 28 129 101 207 49 53 53
61 53 107 0 147 74 214 244 221 68 3 70 4 87 36 30 58 89 119 142 146 45 22
60 25 127 21 52 -3 92 -12 130 -29 l55 -26 35 35 c117 116 275 151 398 88z
m-97 -842 c35 -38 94 -65 155 -71 l54 -6 0 -46 c0 -25 7 -194 15 -376 8 -181
18 -477 22 -657 l6 -326 -34 -6 c-195 -33 -634 -60 -884 -54 -191 5 -205 4
-155 -8 182 -45 492 -62 813 -44 125 7 231 10 234 6 11 -11 -20 -66 -57 -100
-47 -42 -57 -44 -345 -56 -342 -14 -650 7 -735 50 -34 17 -89 71 -90 88 -1 4
-5 27 -10 52 -10 50 5 394 45 1045 14 220 25 405 25 411 0 7 25 13 60 16 40 3
70 11 89 26 29 21 29 21 47 1 10 -11 47 -34 83 -52 60 -29 74 -32 161 -32 89
0 99 2 158 34 35 19 76 50 91 68 26 31 34 34 92 38 35 2 75 8 89 14 37 15 44
13 71 -15z m709 -103 c28 -20 62 -105 87 -216 35 -161 25 -525 -17 -622 -23
-51 -94 -124 -149 -153 -51 -26 -136 -46 -223 -54 l-68 -7 0 61 c0 54 2 60 23
64 218 42 266 74 308 203 30 94 37 301 15 433 -22 128 -32 154 -63 171 -40 22
-137 15 -226 -16 -43 -15 -79 -26 -81 -24 -2 2 -6 27 -10 55 l-6 51 47 21
c137 58 305 73 363 33z m-141 -206 c16 -8 32 -22 36 -32 4 -10 10 -90 13 -178
6 -224 -19 -314 -108 -380 -40 -29 -121 -58 -152 -53 -23 3 -23 6 -29 173 -4
94 -10 226 -14 295 l-6 126 58 26 c32 15 65 29 73 32 32 10 102 5 129 -9z"/>
<path d="M2020 2882 l-55 -18 81 -6 c82 -6 159 -32 198 -66 25 -22 66 -110 66
-141 0 -19 3 -22 12 -13 6 6 11 37 12 69 0 74 -25 127 -76 160 -52 35 -158 41
-238 15z"/>
<path d="M1440 2832 c-21 -11 -43 -34 -55 -59 l-20 -40 -56 5 c-95 8 -170 -51
-195 -153 -7 -30 -7 -30 43 17 55 51 108 71 151 58 42 -12 85 -35 106 -59 11
-12 22 -21 25 -21 3 0 4 27 3 59 -7 112 37 159 158 171 l65 6 -37 17 c-50 23
-144 22 -188 -1z"/>
<path d="M1200 2014 c0 -21 -7 -266 -15 -543 -16 -571 -19 -546 59 -576 58
-22 109 -13 148 25 26 27 28 34 28 112 0 46 7 254 15 463 14 357 17 546 9 500
-2 -11 -24 -231 -49 -490 -42 -433 -47 -471 -66 -487 -12 -10 -27 -18 -34 -18
-7 0 -22 8 -33 18 -20 16 -21 36 -37 522 -10 278 -19 507 -21 509 -2 2 -4 -13
-4 -35z"/>
<path d="M2200 2018 c0 -7 -16 -233 -35 -503 -19 -269 -35 -490 -35 -491 0
-12 -36 -34 -54 -34 -52 0 -52 3 -82 507 -15 259 -32 469 -36 467 -4 -3 -8
-234 -8 -514 l0 -510 28 -31 c51 -57 166 -49 206 14 11 18 15 127 20 565 4
298 4 542 1 542 -3 0 -5 -6 -5 -12z"/>
<path d="M1601 1985 c-1 -22 -8 -262 -16 -534 -9 -313 -11 -501 -5 -512 22
-40 61 -59 120 -59 69 0 107 24 114 73 7 45 39 998 34 1022 -2 11 -23 -180
-47 -425 -54 -557 -50 -532 -84 -548 -33 -16 -64 -2 -72 31 -2 12 -12 236 -20
497 -15 433 -22 564 -24 455z"/>
</g>
</svg>
